<?xml version="1.0" standalone="no"?>
<!DOCTYPE svg PUBLIC "-//W3C//DTD SVG 20010904//EN"
 "http://www.w3.org/TR/2001/REC-SVG-20010904/DTD/svg10.dtd">
<svg version="1.0" xmlns="http://www.w3.org/2000/svg"
 width="2000.000000pt" height="2000.000000pt" viewBox="0 0 2000.000000 2000.000000"
 preserveAspectRatio="xMidYMid meet">

<g transform="translate(0.000000,2000.000000) scale(0.100000,-0.100000)"
fill="#000000" stroke="none">
<path d="M8491 15038 c-974 -1949 -1771 -3546 -1771 -3550 0 -5 97 -8 215 -8
118 0 215 -2 215 -4 0 -3 -615 -1240 -630 -1266 -4 -8 -157 -314 -340 -680
-182 -366 -335 -672 -340 -680 -5 -8 -34 -66 -65 -127 -31 -62 -60 -113 -65
-113 -5 0 -44 70 -87 155 -42 85 -78 153 -79 152 -7 -7 -3552 -7102 -3550
-7104 2 -2 1601 -2 3554 -1 l3552 3 -130 260 c-72 143 -130 263 -130 268 0 4
646 7 1435 7 789 0 1435 -3 1435 -7 0 -5 -56 -120 -125 -257 -68 -137 -122
-253 -119 -258 3 -4 1600 -8 3550 -8 2749 0 3544 3 3544 12 0 16 -3541 7098
-3549 7098 -3 0 -73 -135 -155 -300 -81 -165 -151 -300 -155 -300 -9 0 -1579
3138 -1573 3145 3 3 160 5 349 5 204 0 343 4 343 9 0 17 -3541 7091 -3550
7091 -4 0 -805 -1594 -1779 -3542z m-171 -3828 c293 -30 597 -121 948 -284
249 -115 554 -287 779 -437 l101 -68 134 88 c414 274 893 506 1268 615 895
259 1520 -32 1611 -750 14 -117 7 -349 -16 -479 -83 -481 -329 -1042 -697
-1592 -37 -56 -68 -105 -68 -107 0 -3 42 -69 94 -148 314 -480 550 -996 641
-1403 175 -781 -80 -1312 -694 -1447 -126 -28 -395 -30 -546 -5 -321 55 -609
154 -970 332 -213 106 -462 248 -638 366 l-117 78 -128 -83 c-458 -301 -974
-545 -1352 -641 -210 -53 -325 -69 -515 -69 -191 -1 -274 11 -413 58 -259 88
-460 285 -548 536 -84 240 -87 559 -8 890 100 422 324 910 635 1386 l99 151
-67 99 c-242 354 -490 848 -602 1196 -86 271 -112 415 -118 660 -5 176 -3 208
17 305 41 202 108 337 229 466 90 94 143 134 247 186 190 94 425 129 694 101z
m7770 -6710 c91 -22 267 -104 314 -146 l29 -25 -79 -116 c-43 -64 -84 -117
-90 -120 -6 -2 -32 10 -57 27 -142 96 -343 136 -444 90 -74 -33 -104 -116 -65
-182 24 -42 110 -80 287 -128 177 -48 278 -96 355 -166 68 -64 100 -124 113
-220 21 -146 -19 -286 -109 -377 -25 -26 -42 -47 -37 -47 4 -1 62 -2 128 -3
l120 -2 3 -47 3 -48 -859 0 -859 0 -68 160 -68 160 -316 0 -316 0 -69 -160
-69 -160 -2078 0 -2079 0 0 455 c0 250 -4 455 -8 455 -5 0 -96 -177 -203 -392
l-194 -393 -100 0 -100 0 -194 393 c-107 215 -198 392 -203 392 -4 0 -8 -205
-8 -455 l0 -455 -499 0 -498 0 -165 238 -165 237 -114 0 -114 0 -3 -238 -2
-237 -1733 2 -1732 3 0 45 0 45 102 3 103 3 2 702 3 702 265 3 c430 5 581 -16
697 -94 96 -66 153 -180 152 -309 0 -135 -35 -206 -137 -281 -28 -21 -52 -41
-52 -44 0 -3 22 -13 48 -22 96 -35 180 -122 213 -223 7 -22 12 -78 12 -125 -1
-111 -27 -181 -95 -255 l-50 -55 231 0 231 0 2 703 3 702 520 3 c286 1 530 0
543 -3 22 -5 23 -7 20 -153 l-3 -147 -372 -3 -373 -2 0 -150 0 -150 335 0 335
0 0 -145 0 -145 -335 0 -335 0 0 -155 0 -155 385 0 385 0 0 -100 0 -100 145 0
145 0 2 703 3 702 235 3 c294 3 551 -11 647 -36 152 -41 257 -126 302 -247 12
-31 26 -98 32 -148 28 -224 -62 -431 -220 -512 -28 -14 -51 -29 -51 -33 0 -5
13 -26 28 -48 16 -21 83 -117 151 -211 l122 -173 154 0 155 0 2 703 3 702 220
2 c121 2 225 0 231 -5 6 -4 95 -188 199 -410 104 -221 192 -399 195 -395 4 5
54 109 112 233 59 124 127 270 153 325 26 55 63 133 81 173 18 39 38 72 44 72
5 0 105 0 220 0 116 0 215 0 220 0 7 0 10 -240 10 -700 l0 -700 293 0 293 0
-69 70 c-47 48 -78 91 -102 142 -69 146 -68 141 -73 687 -2 314 0 496 6 500 6
3 82 5 171 3 l161 -3 0 -447 c0 -541 5 -571 98 -674 52 -58 121 -88 203 -88
122 0 209 52 262 157 44 86 47 129 47 603 l0 449 166 3 c91 2 168 1 170 -1 9
-10 3 -930 -7 -991 -24 -148 -86 -273 -182 -362 l-51 -48 297 0 297 0 0 703 0
702 372 -6 c341 -5 380 -7 453 -27 313 -85 491 -291 527 -609 36 -316 -70
-585 -286 -725 l-60 -38 258 2 257 3 83 190 c45 105 181 418 302 697 l219 508
166 0 166 0 95 -222 c53 -123 167 -387 254 -588 86 -201 178 -414 204 -475
l47 -110 148 -5 c81 -3 148 -3 150 -1 3 2 -22 20 -53 41 -31 20 -75 53 -97 72
l-40 35 99 122 c53 66 100 121 103 121 2 0 30 -20 62 -44 143 -111 257 -158
381 -159 92 -1 125 10 169 57 16 17 25 41 28 73 8 99 -44 136 -292 203 -178
48 -318 112 -379 173 -117 118 -141 344 -53 510 60 115 189 195 365 227 75 14
248 4 342 -20z"/>
<path d="M7985 10690 c-245 -53 -356 -226 -342 -534 16 -358 190 -822 504
-1347 116 -194 92 -188 204 -51 348 423 878 951 1267 1261 l92 73 -72 45
c-445 276 -833 449 -1183 528 -96 22 -150 28 -275 31 -85 2 -173 -1 -195 -6z"/>
<path d="M11990 10694 c-318 -56 -542 -135 -915 -322 -123 -61 -394 -216 -468
-267 -16 -11 -7 -21 85 -96 441 -360 913 -834 1293 -1297 32 -39 62 -69 66
-65 20 22 191 316 260 448 329 633 430 1154 275 1419 -38 65 -106 120 -189
152 -66 25 -85 28 -227 30 -85 1 -166 0 -180 -2z"/>
<path d="M10029 9687 c-432 -346 -842 -742 -1184 -1146 -128 -151 -267 -323
-272 -338 -3 -7 37 -66 88 -130 403 -511 954 -1057 1456 -1440 l33 -25 122 98
c506 405 970 868 1361 1361 53 67 97 125 97 129 0 10 -179 231 -310 384 -343
397 -729 768 -1150 1106 -65 52 -119 94 -121 94 -2 0 -56 -42 -120 -93z m326
-752 c90 -24 214 -89 288 -151 317 -260 371 -733 122 -1062 -81 -108 -197
-195 -324 -245 -296 -115 -611 -50 -832 173 -207 208 -275 500 -185 786 35
109 97 207 190 299 115 113 227 175 381 209 87 19 273 15 360 -9z"/>
<path d="M8209 7682 c-133 -210 -282 -491 -372 -702 -268 -630 -262 -1099 17
-1235 99 -48 166 -58 341 -52 186 6 293 28 524 106 275 93 650 279 933 462
l58 37 -98 78 c-390 312 -859 777 -1230 1218 l-131 155 -42 -67z"/>
<path d="M11985 7678 c-379 -462 -867 -952 -1293 -1297 l-103 -83 33 -23 c90
-61 310 -187 453 -259 437 -222 778 -326 1065 -326 146 -1 217 12 306 56 91
44 165 143 195 264 24 93 17 313 -13 455 -53 244 -161 529 -312 820 -72 139
-244 436 -265 458 -4 4 -34 -26 -66 -65z"/>
<path d="M4295 4199 c-3 -8 -4 -80 -3 -159 l3 -145 110 -3 c148 -4 241 12 276
48 32 31 44 82 35 144 -14 90 -70 114 -283 123 -110 5 -133 4 -138 -8z"/>
<path d="M7215 4188 c-3 -7 -4 -106 -3 -218 l3 -205 170 0 c202 1 265 14 313
69 37 42 56 120 49 193 -8 75 -33 113 -92 143 -47 24 -61 25 -242 28 -156 3
-194 1 -198 -10z"/>
<path d="M12435 4188 c-3 -7 -4 -211 -3 -453 l3 -440 165 1 c139 0 176 3 235
22 115 35 193 101 240 204 71 156 52 389 -43 513 -89 118 -224 165 -475 165
-85 0 -119 -3 -122 -12z"/>
<path d="M14385 4020 c-21 -34 -173 -396 -169 -402 7 -11 354 -10 354 0 0 9
-169 404 -175 410 -2 2 -6 -2 -10 -8z"/>
<path d="M4295 3609 c-3 -8 -4 -84 -3 -169 l3 -155 159 -3 c188 -3 263 11 311
59 28 28 30 34 30 110 0 78 -1 82 -31 109 -43 37 -103 49 -300 57 -138 5 -164
4 -169 -8z"/>
</g>
</svg>
